<?xml version="1.0" encoding="UTF-8"?>
<svg xmlns="http://www.w3.org/2000/svg" id="Layer_1" data-name="Layer 1" viewBox="0 0 24 24">
  <path d="m3.5,6c-.668,0-1.296-.26-1.768-.732L.167,3.873c-.207-.184-.225-.5-.041-.706.184-.207.5-.224.706-.041l1.586,1.414c.608.605,1.576.586,2.142.02l3.595-3.423c.199-.189.515-.183.707.018.19.2.183.517-.018.707l-3.586,3.414c-.463.463-1.091.724-1.759.724Zm20.5-1.5c0-.276-.224-.5-.5-.5h-11c-.276,0-.5.224-.5.5s.224.5.5.5h11c.276,0,.5-.224.5-.5ZM5.259,13.276l3.586-3.414c.2-.19.208-.507.018-.707-.192-.2-.508-.208-.707-.018l-3.595,3.423c-.566.566-1.555.566-2.121,0l-1.586-1.585c-.195-.195-.512-.195-.707,0s-.195.512,0,.707l1.586,1.585c.472.472,1.1.732,1.768.732s1.296-.26,1.759-.724Zm18.741-.776c0-.276-.224-.5-.5-.5h-11c-.276,0-.5.224-.5.5s.224.5.5.5h11c.276,0,.5-.224.5-.5ZM5.259,21.276l3.586-3.414c.2-.19.208-.507.018-.707-.192-.2-.508-.207-.707-.018l-3.595,3.423c-.566.566-1.534.586-2.142-.02l-1.586-1.414c-.206-.184-.521-.166-.706.041s-.166.522.041.706l1.565,1.395c.472.472,1.1.732,1.768.732s1.296-.26,1.759-.724Zm18.741-.776c0-.276-.224-.5-.5-.5h-11c-.276,0-.5.224-.5.5s.224.5.5.5h11c.276,0,.5-.224.5-.5Z"/>
</svg>
