<?xml version="1.0" encoding="UTF-8"?>
<svg xmlns="http://www.w3.org/2000/svg" id="Layer_1" data-name="Layer 1" viewBox="0 0 24 24">
  <path d="m22,4.498c.001-.735-.428-1.37-1.094-1.618L14.173.373c-1.369-.509-2.876-.511-4.247-.006L3.111,2.883c-.668.247-1.099.881-1.099,1.617,0,.736.432,1.371,1.1,1.616l2.888,1.063v1.82c0,3.309,2.691,6,6,6s6-2.691,6-6v-1.821s2.965-1.107,3-1.123v5.444c0,.276.224.5.5.5s.5-.224.5-.5v-7s0,0,0,0c0,0,0,0,0-.001Zm-5,4.502c0,2.757-2.243,5-5,5s-5-2.243-5-5v-1.452l2.889,1.064c.68.25,1.395.375,2.109.375s1.429-.125,2.109-.375l2.892-1.064v1.453Zm3.555-3.827l-6.792,2.5c-1.138.419-2.391.419-3.527,0l-6.777-2.495c-.329-.121-.446-.43-.446-.678s.117-.557.445-.678l6.816-2.516c.57-.211,1.169-.316,1.769-.316.604,0,1.208.107,1.782.321l6.733,2.507c.327.122.443.431.443.679,0,.249-.118.557-.445.677Zm.422,18.177c.083.263-.063.544-.327.627-.05.016-.101.023-.15.023-.213,0-.41-.136-.477-.35-1.046-3.327-4.346-5.65-8.023-5.65s-6.977,2.323-8.023,5.65c-.083.264-.363.41-.627.327s-.41-.364-.327-.627c1.176-3.739,4.868-6.35,8.977-6.35s7.801,2.611,8.977,6.35Z"/>
</svg>
