<svg width="200" height="200" viewBox="0 0 200 200" xmlns="http://www.w3.org/2000/svg">
    <defs>
        <marker id="rectMarker" viewBox="0 0 10 10" refX="1" refY="10" markerHeight="32" orient="auto">
            <rect x="0" y="0" width="2" height="16" fill="black"/>
        </marker>
    </defs>
    <path fill="none"
          stroke="black"
          stroke-width="5"
          d="M 60 60 L 60 140"
          marker-start="url(#rectMarker)"
          marker-end="url(#rectMarker)"/>
    <path fill="none"
          stroke="black"
          stroke-width="5"
          d="M 120 60 L 120 140"
          marker-start="url(#rectMarker)"
          marker-end="url(#rectMarker)"/>
    <path fill="none"
          stroke="black"
          stroke-width="5"
          d="M 120 70 L 88.5 101"/>
    <path fill="none"
          stroke="black"
          stroke-width="5"
          d="M 60 70 L 92 101"/>
    <path d="m16.913,14.893l7.026-2.893-7.026-2.893,3.587-5.607-5.607,3.587L12,.06l-2.893,7.027L3.5,3.5l3.587,5.607L.061,12l7.026,2.893-3.587,5.607,5.607-3.587,2.893,7.027,2.893-7.027,5.607,3.587-3.587-5.607Zm-4.913,1.167l-1.184-2.875-2.877-1.185,2.877-1.185,1.184-2.875,1.184,2.875,2.877,1.185-2.877,1.185-1.184,2.875Z">
        <animateMotion
                dur="6s"
                repeatCount="indefinite"

                path="M 48 125 L 48 59 L 78 89 L 108 59 L 108 125"
        />
    </path>
    <animateTransform attributeName="transform"
                      begin="0s"
                      dur="10s"
                      type="rotate"
                      from="0"
                      to="360"
                      repeatCount="indefinite"/>
</svg>